<svg xmlns="http://www.w3.org/2000/svg" width="540.155" height="134.658" viewBox="0 0 540.155 134.658">
  <g id="组_1" data-name="组 1" transform="translate(1644.942 -484.547)">
    <path id="路径_1" data-name="路径 1" d="M-1397.792,609.527c-15.642,3.726-28.91.288-39.107-13.848-1.264-1.753-4.119-8.572-4.119-8.572,1.172,11.284,9.249,22.443,18.171,27.4,10.548,5.864,21.908,5.737,33.147,2.345,14.912-4.5,26.6-13.74,36.651-25.3,1.839-2.116,3.5-4.39,5.732-7.217h-13.625C-1370.224,595.083-1383.824,606.2-1397.792,609.527Z" fill="#62b065"/>
    <path id="路径_2" data-name="路径 2" d="M-1344.771,512.463c1.3,3.207,3.127,12.439,3.127,12.439h12.967s-.443-5.157-.888-7.013c-4.1-17.086-14.573-29.325-32.15-32.724-10.464-2.024-26.258.971-38.038,8.242,6.417-2.27,14.6-4.162,19.443-4.263C-1363.589,488.8-1350.886,497.325-1344.771,512.463Z" fill="#62b065"/>
    <path id="路径_3" data-name="路径 3" d="M-1599.193,568.174l-8.863-30.687h-9.351l-8.863,30.687-9.234-30.687-9.439.077,13.618,42.176h10.22l8.373-29.545,8.373,29.545h10.22l13.618-42.176-9.439-.077Z" fill="#62b065"/>
    <path id="路径_4" data-name="路径 4" d="M-1427.949,563.706s6.562.041,9.473.032c9.885-.032,8.733,12.087,9.122,13.959.12.579.45,2.021.909,2.043h9.425c-.986-2.27,2.127-15.194-7.676-18.451,1.011-.775,7.676-1.5,7.676-11.319,0-5.588-2.626-12.483-14.6-12.483h-23.28V579.74h8.95Zm0-18.472h12.64c4.565,0,5.955,2.326,5.955,5.325,0,2.5-.529,5.261-6.5,5.261h-12.1Z" fill="#62b065"/>
    <path id="路径_5" data-name="路径 5" d="M-1529.8,552.707V579.74h8.949V562.408h24.988v-7.533h-24.988c0-8.132,3.616-9.641,7.886-9.641h17.1v-7.747h-18.481C-1523.034,537.487-1529.8,541.839-1529.8,552.707Z" fill="#62b065"/>
    <path id="路径_6" data-name="路径 6" d="M-1116.94,572.014c-4.27,0-7.885-1.509-7.885-9.641V537.507h-8.95V564.54c0,10.868,6.767,15.22,15.456,15.22l13.531-.02v-7.726Z" fill="#62b065"/>
    <rect id="矩形_1" data-name="矩形 1" width="9.575" height="42.253" transform="translate(-1311.588 537.487)" fill="#62b065"/>
    <rect id="矩形_2" data-name="矩形 2" width="9.574" height="42.253" transform="translate(-1243.617 537.487)" fill="#62b065"/>
    <path id="路径_7" data-name="路径 7" d="M-1226.573,545.234h13.141V579.74h9.574V545.234h13.141v-7.746h-35.857Z" fill="#62b065"/>
    <path id="路径_8" data-name="路径 8" d="M-1404.256,514.485c-4.734-6.793-3.868-12.735,1.789-18.254-10.682,4.917-11.1,3.181-18.523-1.761,4.7,6.505,3.929,12.463-1.759,18.248C-1415.962,508.029-1410.009,508.91-1404.256,514.485Z" fill="#fff"/>
    <path id="路径_9" data-name="路径 9" d="M-1573.816,558.63c0,14.306,8.02,21.126,15.749,21.126h18.263V572.01h-15.354c-5.834,0-8.274-3.958-8.265-9.641l23.619.01v-7.5l-23.619.01c-.009-5.684,2.431-9.641,8.265-9.641h15.354V537.5h-18.263C-1565.8,537.5-1573.816,544.323-1573.816,558.63Z" fill="#62b065"/>
    <path id="路径_10" data-name="路径 10" d="M-1292.847,558.63c0,14.306,8.021,21.126,15.749,21.126l22.763-.016V554.875h-20.52v7.533h11.482l.089,9.6h-10.9c-5.833,0-8.273-3.958-8.264-9.641v-7.478c-.009-5.684,2.431-9.641,8.264-9.641,2.993,0,19.854-.016,19.854-.016v-7.747l-22.763.016C-1284.826,537.5-1292.847,544.323-1292.847,558.63Z" fill="#62b065"/>
    <path id="路径_11" data-name="路径 11" d="M-1168.855,537.507l-17.578,42.253h10.86l4.235-10.092h15.525l4.234,10.092h10.86l-17.578-42.253Zm-.646,24.92,5.925-14.136,5.925,14.136Z" fill="#62b065"/>
    <path id="路径_12" data-name="路径 12" d="M-1337.179,537.5l-22.67-.016V579.74h22.67c7.729,0,15.749-6.817,15.749-21.118S-1329.45,537.5-1337.179,537.5Zm5.356,24.866c.009,5.683-2.431,9.641-8.265,9.641h-10.77V545.242c4.5,0,9.3.008,10.77.008,5.834,0,8.274,3.957,8.265,9.641Z" fill="#62b065"/>
    <path id="路径_13" data-name="路径 13" d="M-1467.413,537.458c-14.175.068-20.68,6.376-20.68,21.085,0,14.808,8.5,21.078,20.68,21.155,12.177-.077,20.681-6.347,20.681-21.155C-1446.732,543.834-1453.238,537.526-1467.413,537.458Zm0,35.061c-4.1,0-10.751-1.395-10.751-13.976,0-13.152,6.683-13.955,10.751-13.91,4.068-.045,10.751.758,10.751,13.91C-1456.662,571.124-1463.31,572.517-1467.413,572.519Z" fill="#62b065"/>
  </g>
</svg>
